<?xml version="1.0" standalone="no"?>
<!DOCTYPE svg PUBLIC "-//W3C//DTD SVG 20010904//EN"
 "http://www.w3.org/TR/2001/REC-SVG-20010904/DTD/svg10.dtd">
<svg version="1.0" xmlns="http://www.w3.org/2000/svg"
 width="512.000000pt" height="512.000000pt" viewBox="0 0 512.000000 512.000000"
 preserveAspectRatio="xMidYMid meet">
<metadata>
Created by potrace 1.11, written by Peter Selinger 2001-2013
</metadata>
<g transform="translate(0.000000,512.000000) scale(0.100000,-0.100000)"
fill="#000000" stroke="none">
<path d="M1693 4138 c-6 -18 -83 -215 -171 -438 -480 -1219 -516 -1310 -582
-1480 -27 -69 -56 -142 -65 -163 l-15 -37 172 2 172 3 82 220 c45 121 87 232
92 248 l10 27 472 -2 472 -3 19 -50 c11 -27 51 -135 91 -240 39 -104 74 -193
78 -198 3 -4 81 -6 172 -5 l165 3 -28 70 c-15 39 -58 147 -94 240 -37 94 -91
231 -120 305 -29 74 -78 198 -108 275 -30 77 -81 205 -112 285 -31 80 -77 197
-102 260 -187 476 -255 649 -268 678 l-15 32 -153 0 -154 0 -10 -32z m185
-410 c7 -18 56 -148 108 -288 52 -140 104 -277 115 -305 11 -27 39 -102 62
-165 l43 -115 -339 -3 c-187 -1 -342 0 -345 2 -4 4 83 239 265 721 19 50 42
111 51 138 9 26 18 47 22 47 3 0 11 -15 18 -32z"/>
<path d="M3357 2073 l-666 -668 -306 305 -305 305 -110 -110 c-60 -60 -110
-112 -110 -116 0 -3 188 -193 417 -423 l417 -416 782 782 782 783 -111 113
c-61 61 -115 112 -118 112 -3 0 -306 -300 -672 -667z"/>
</g>
</svg>
